<svg width="512" height="512" viewBox="0 0 512 512" fill="none" xmlns="http://www.w3.org/2000/svg">
<g clip-path="url(#clip0_28_3)">
<rect width="512" height="512" rx="50" fill="white"/>
<path d="M80.9839 260.015C132.382 317.875 287.026 328.911 387.687 435.118C421.434 332.459 373.626 155.249 325.982 87.67C303.102 55.2172 268.253 33.1725 229.102 26.3854C189.95 19.5984 149.703 28.6249 117.215 51.4793C49.5604 99.0711 26.0631 198.19 80.9839 260.015Z" fill="#E84A5F"/>
<path d="M205.024 204.883C177.922 204.883 155.95 182.912 155.95 155.809C155.95 128.706 177.922 106.735 205.024 106.735C232.127 106.735 254.098 128.706 254.098 155.809C254.098 182.912 232.127 204.883 205.024 204.883Z" fill="white"/>
<path d="M428.839 488.32C411.361 488.32 397.193 474.152 397.193 456.674C397.193 439.197 411.361 425.029 428.839 425.029C446.316 425.029 460.485 439.197 460.485 456.674C460.485 474.152 446.316 488.32 428.839 488.32Z" fill="#E84A5F"/>
<path opacity="0.2" d="M163.232 132.419C157.449 142.504 155.373 154.36 157.376 165.864C159.379 177.369 165.33 187.77 174.164 195.208C182.998 202.645 194.138 206.632 205.59 206.456C217.043 206.28 228.06 201.952 236.67 194.246C233.145 200.405 228.35 205.708 222.618 209.789C216.885 213.87 210.351 216.631 203.468 217.881C196.586 219.131 189.519 218.839 182.758 217.027C175.997 215.215 169.703 211.926 164.311 207.387C158.919 202.848 154.559 197.167 151.533 190.739C148.506 184.31 146.885 177.288 146.783 170.157C146.68 163.027 148.098 155.958 150.938 149.442C153.779 142.926 157.973 137.117 163.232 132.419Z" fill="#231F20"/>
<path opacity="0.2" d="M103.098 66.3752C62.9339 118.169 56.0063 192.606 100.509 242.629C150.233 298.518 296.454 310.717 397.193 407.246C395.516 417.313 393.094 427.242 389.948 436.953C289.16 330.771 134.318 319.738 82.8544 261.892C32.4606 205.249 48.0137 117.302 103.098 66.3752Z" fill="#231F20"/>
</g>
<defs>
<clipPath id="clip0_28_3">
<rect width="512" height="512" rx="50" fill="white"/>
</clipPath>
</defs>
</svg>
